<svg width="20" height="21" viewBox="0 0 20 21" fill="none" xmlns="http://www.w3.org/2000/svg">
<path d="M9.99984 19.4577C5.05817 19.4577 1.0415 15.441 1.0415 10.4993C1.0415 5.55768 5.05817 1.54102 9.99984 1.54102C14.9415 1.54102 18.9582 5.55768 18.9582 10.4993C18.9582 15.441 14.9415 19.4577 9.99984 19.4577ZM9.99984 2.79102C5.74984 2.79102 2.2915 6.24935 2.2915 10.4993C2.2915 14.7493 5.74984 18.2077 9.99984 18.2077C14.2498 18.2077 17.7082 14.7493 17.7082 10.4993C17.7082 6.24935 14.2498 2.79102 9.99984 2.79102Z" fill="#929EAE"/>
<path d="M13.3332 11.125H6.6665C6.32484 11.125 6.0415 10.8417 6.0415 10.5C6.0415 10.1583 6.32484 9.875 6.6665 9.875H13.3332C13.6748 9.875 13.9582 10.1583 13.9582 10.5C13.9582 10.8417 13.6748 11.125 13.3332 11.125Z" fill="#929EAE"/>
<path d="M10 14.4577C9.65833 14.4577 9.375 14.1743 9.375 13.8327V7.16602C9.375 6.82435 9.65833 6.54102 10 6.54102C10.3417 6.54102 10.625 6.82435 10.625 7.16602V13.8327C10.625 14.1743 10.3417 14.4577 10 14.4577Z" fill="#929EAE"/>
</svg>
