<svg width="42" height="42" viewBox="0 0 42 42" fill="none" xmlns="http://www.w3.org/2000/svg">
<path d="M2.1875 21C2.1875 10.6225 10.6225 2.1875 21 2.1875C31.3775 2.1875 39.8125 10.6225 39.8125 21C39.8125 31.3775 31.3775 39.8125 21 39.8125C10.6225 39.8125 2.1875 31.3775 2.1875 21ZM37.1875 21C37.1875 12.075 29.925 4.8125 21 4.8125C12.075 4.8125 4.8125 12.075 4.8125 21C4.8125 29.925 12.075 37.1875 21 37.1875C29.925 37.1875 37.1875 29.925 37.1875 21Z" fill="#292D32"/>
<path d="M15.3125 21C15.3125 20.2825 15.9075 19.6875 16.625 19.6875L27.125 19.6875C27.8425 19.6875 28.4375 20.2825 28.4375 21C28.4375 21.7175 27.8425 22.3125 27.125 22.3125L16.625 22.3125C15.9075 22.3125 15.3125 21.7175 15.3125 21Z" fill="#292D32"/>
<path d="M13.5625 20.9995C13.5625 20.667 13.685 20.3345 13.9475 20.072L19.1975 14.822C19.705 14.3145 20.545 14.3145 21.0525 14.822C21.56 15.3295 21.56 16.1695 21.0525 16.677L16.73 20.9995L21.0525 25.322C21.56 25.8295 21.56 26.6695 21.0525 27.177C20.545 27.6845 19.705 27.6845 19.1975 27.177L13.9475 21.927C13.685 21.6645 13.5625 21.332 13.5625 20.9995Z" fill="#292D32"/>
</svg>
