<svg width="24" height="24" viewBox="0 0 24 24" fill="none" xmlns="http://www.w3.org/2000/svg">
<path d="M1.25 12C1.25 6.07 6.07 1.25 12 1.25C17.93 1.25 22.75 6.07 22.75 12C22.75 17.93 17.93 22.75 12 22.75C6.07 22.75 1.25 17.93 1.25 12ZM21.25 12C21.25 6.9 17.1 2.75 12 2.75C6.9 2.75 2.75 6.9 2.75 12C2.75 17.1 6.9 21.25 12 21.25C17.1 21.25 21.25 17.1 21.25 12Z" fill="#929EAE"/>
<path d="M8.75 12C8.75 11.59 9.09 11.25 9.5 11.25L15.5 11.25C15.91 11.25 16.25 11.59 16.25 12C16.25 12.41 15.91 12.75 15.5 12.75L9.5 12.75C9.09 12.75 8.75 12.41 8.75 12Z" fill="#929EAE"/>
<path d="M7.75006 11.9995C7.75006 11.8095 7.82006 11.6195 7.97006 11.4695L10.9701 8.46945C11.2601 8.17945 11.7401 8.17945 12.0301 8.46945C12.3201 8.75945 12.3201 9.23945 12.0301 9.52945L9.56006 11.9995L12.0301 14.4695C12.3201 14.7595 12.3201 15.2395 12.0301 15.5295C11.7401 15.8195 11.2601 15.8195 10.9701 15.5295L7.97006 12.5295C7.82006 12.3795 7.75006 12.1895 7.75006 11.9995Z" fill="#929EAE"/>
</svg>
