<svg width="19" height="14" viewBox="0 0 19 14" fill="none" xmlns="http://www.w3.org/2000/svg">
<path d="M0.91707 7.56836H17.7471C18.1571 7.56836 18.4971 7.22836 18.4971 6.81836C18.4971 6.40836 18.1571 6.06836 17.7471 6.06836H0.91707C0.50707 6.06836 0.16707 6.40836 0.16707 6.81836C0.16707 7.22836 0.50707 7.56836 0.91707 7.56836Z" fill="#929EAE"/>
<path d="M6.81793 13.6375C7.00793 13.6375 7.19793 13.5675 7.34793 13.4175C7.63793 13.1275 7.63793 12.6475 7.34793 12.3575L1.80793 6.8175L7.34793 1.2775C7.63793 0.9875 7.63793 0.5075 7.34793 0.2175C7.05793 -0.0725 6.57793 -0.0725 6.28793 0.2175L0.217928 6.2875C-0.0720716 6.5775 -0.0720716 7.0575 0.217928 7.3475L6.28793 13.4175C6.43793 13.5675 6.62793 13.6375 6.81793 13.6375Z" fill="#929EAE"/>
</svg>
