<svg width="14" height="17" viewBox="0 0 14 17" fill="none" xmlns="http://www.w3.org/2000/svg">
<path d="M7.97516 1.83268L12.0002 5.85768V15.166H2.00016V1.83268H7.97516ZM8.66683 0.166016H2.00016C1.0835 0.166016 0.333496 0.916016 0.333496 1.83268V15.166C0.333496 16.0827 1.0835 16.8327 2.00016 16.8327H12.0002C12.9168 16.8327 13.6668 16.0827 13.6668 15.166V5.16602L8.66683 0.166016ZM7.00016 10.166C7.91683 10.166 8.66683 9.41602 8.66683 8.49935C8.66683 7.58268 7.91683 6.83268 7.00016 6.83268C6.0835 6.83268 5.3335 7.58268 5.3335 8.49935C5.3335 9.41602 6.0835 10.166 7.00016 10.166ZM10.3335 13.0243C10.3335 12.3493 9.9335 11.7493 9.31683 11.4827C8.6085 11.1743 7.82516 10.9993 7.00016 10.9993C6.17516 10.9993 5.39183 11.1743 4.6835 11.4827C4.06683 11.7493 3.66683 12.3493 3.66683 13.0243V13.4993H10.3335V13.0243Z" fill="#929EAE"/>
</svg>
