<svg xmlns="http://www.w3.org/2000/svg" width="18" height="19" viewBox="0 0 18 19" fill="none">
  <path d="M11.5427 4.4075L12.6002 6.5225C12.7427 6.815 13.1252 7.0925 13.4477 7.1525L15.3602 7.4675C16.5827 7.67 16.8677 8.555 15.9902 9.44L14.4977 10.9325C14.2502 11.18 14.1077 11.6675 14.1902 12.02L14.6177 13.865C14.9552 15.32 14.1752 15.89 12.8927 15.125L11.1002 14.06C10.7777 13.865 10.2377 13.865 9.91521 14.06L8.1227 15.125C6.8402 15.8825 6.06021 15.32 6.39771 13.865L6.82521 12.02C6.90771 11.675 6.76521 11.1875 6.51771 10.9325L5.02522 9.44C4.14772 8.5625 4.43271 7.6775 5.65521 7.4675L7.5677 7.1525C7.8902 7.1 8.27271 6.815 8.41521 6.5225L9.47271 4.4075C10.0352 3.26 10.9652 3.26 11.5427 4.4075Z" fill="#929EAE"/>
  <path opacity="0.4" d="M6 4.8125H1.5C1.1925 4.8125 0.9375 4.5575 0.9375 4.25C0.9375 3.9425 1.1925 3.6875 1.5 3.6875H6C6.3075 3.6875 6.5625 3.9425 6.5625 4.25C6.5625 4.5575 6.3075 4.8125 6 4.8125Z" fill="#929EAE"/>
  <path opacity="0.4" d="M3.75 15.3125H1.5C1.1925 15.3125 0.9375 15.0575 0.9375 14.75C0.9375 14.4425 1.1925 14.1875 1.5 14.1875H3.75C4.0575 14.1875 4.3125 14.4425 4.3125 14.75C4.3125 15.0575 4.0575 15.3125 3.75 15.3125Z" fill="#929EAE"/>
  <path opacity="0.4" d="M2.25 10.0625H1.5C1.1925 10.0625 0.9375 9.8075 0.9375 9.5C0.9375 9.1925 1.1925 8.9375 1.5 8.9375H2.25C2.5575 8.9375 2.8125 9.1925 2.8125 9.5C2.8125 9.8075 2.5575 10.0625 2.25 10.0625Z" fill="#929EAE"/>
</svg>