<svg xmlns="http://www.w3.org/2000/svg" width="18" height="19" viewBox="0 0 18 19" fill="none">
  <path opacity="0.4" d="M13.4986 5.87C13.4536 5.8625 13.4011 5.8625 13.3561 5.87C12.3211 5.8325 11.4961 4.985 11.4961 3.935C11.4961 2.8625 12.3586 2 13.4311 2C14.5036 2 15.3661 2.87 15.3661 3.935C15.3586 4.985 14.5336 5.8325 13.4986 5.87Z" stroke="#929EAE" stroke-width="1.5" stroke-linecap="round" stroke-linejoin="round"/>
  <path opacity="0.4" d="M12.7256 11.3301C13.7531 11.5026 14.8856 11.3226 15.6806 10.7901C16.7381 10.0851 16.7381 8.93012 15.6806 8.22512C14.8781 7.69262 13.7306 7.51262 12.7031 7.69262" stroke="#929EAE" stroke-width="1.5" stroke-linecap="round" stroke-linejoin="round"/>
  <path opacity="0.4" d="M4.4759 5.87C4.5209 5.8625 4.5734 5.8625 4.6184 5.87C5.6534 5.8325 6.4784 4.985 6.4784 3.935C6.4784 2.8625 5.6159 2 4.5434 2C3.4709 2 2.6084 2.87 2.6084 3.935C2.6159 4.985 3.4409 5.8325 4.4759 5.87Z" stroke="#929EAE" stroke-width="1.5" stroke-linecap="round" stroke-linejoin="round"/>
  <path opacity="0.4" d="M5.24812 11.3301C4.22062 11.5026 3.08813 11.3226 2.29313 10.7901C1.23563 10.0851 1.23563 8.93012 2.29313 8.22512C3.09563 7.69262 4.24312 7.51262 5.27062 7.69262" stroke="#929EAE" stroke-width="1.5" stroke-linecap="round" stroke-linejoin="round"/>
  <path d="M8.99957 11.4716C8.95457 11.4641 8.90207 11.4641 8.85707 11.4716C7.82207 11.4341 6.99707 10.5866 6.99707 9.53656C6.99707 8.46406 7.85957 7.60156 8.93207 7.60156C10.0046 7.60156 10.8671 8.47156 10.8671 9.53656C10.8596 10.5866 10.0346 11.4416 8.99957 11.4716Z" stroke="#929EAE" stroke-width="1.5" stroke-linecap="round" stroke-linejoin="round"/>
  <path d="M6.81754 13.8345C5.76004 14.5395 5.76004 15.6945 6.81754 16.3995C8.01754 17.202 9.98254 17.202 11.1825 16.3995C12.24 15.6945 12.24 14.5395 11.1825 13.8345C9.99004 13.0395 8.01754 13.0395 6.81754 13.8345Z" stroke="#929EAE" stroke-width="1.5" stroke-linecap="round" stroke-linejoin="round"/>
</svg>