<svg width="17" height="15" viewBox="0 0 17 15" fill="none" xmlns="http://www.w3.org/2000/svg">
<path d="M8.37061 4.80651L10.8041 7.24005L10.8157 7.11258C10.8157 5.83399 9.77666 4.79492 8.49808 4.79492L8.37061 4.80651Z" fill="#CDAEEA"/>
<path d="M8.49813 3.24973C10.6304 3.24973 12.3609 4.98025 12.3609 7.1125C12.3609 7.61079 12.2605 8.08591 12.0867 8.52239L14.3464 10.7821C15.5129 9.80869 16.4323 8.54944 17.0001 7.1125C15.6597 3.72101 12.3648 1.31836 8.49816 1.31836C7.41658 1.31836 6.38138 1.51149 5.41956 1.85913L7.08827 3.52397C7.52471 3.35402 7.99983 3.24973 8.49813 3.24973Z" fill="#CDAEEA"/>
<path d="M0.77254 1.14516L2.53396 2.90658L2.88548 3.2581C1.61077 4.25469 0.60259 5.57963 0 7.11312C1.33653 10.5046 4.63531 12.9073 8.49808 12.9073C9.69555 12.9073 10.8389 12.6755 11.8857 12.2544L12.2141 12.5828L14.4661 14.8386L15.4511 13.8575L1.75754 0.160156L0.77254 1.14516ZM5.04477 5.41352L6.23837 6.60711C6.2036 6.77322 6.18043 6.9393 6.18043 7.11312C6.18043 8.39171 7.2195 9.43078 8.49808 9.43078C8.6719 9.43078 8.83801 9.4076 9.00025 9.37284L10.1938 10.5664C9.68008 10.8214 9.10842 10.9759 8.49808 10.9759C6.36584 10.9759 4.63531 9.24537 4.63531 7.11312C4.63531 6.50282 4.78983 5.93112 5.04477 5.41352Z" fill="#CDAEEA"/>
</svg>
