<svg xmlns="http://www.w3.org/2000/svg" width="51" height="53" viewBox="0 0 51 53" fill="none">
  <g filter="url(#filter0_d_121_1531)">
    <path d="M37.0426 24.0458C37.0426 17.8854 32.0486 12.8914 25.8882 12.8914H14V26.0271C14 32.3902 19.1582 37.5484 25.5213 37.5484C31.8843 37.5484 37.0426 32.3902 37.0426 26.0271V24.0458Z" fill="white"/>
  </g>
  <path d="M30.0419 25.2199C30.0419 22.6873 27.9698 20.6152 25.4373 20.6152C22.9047 20.6152 20.8326 22.6873 20.8326 25.2199C20.8326 27.5222 22.5018 29.4216 24.689 29.7669V26.5437H23.5379V25.2199H24.689V24.1838C24.689 23.0327 25.3797 22.3995 26.4158 22.3995C26.9338 22.3995 27.4518 22.5146 27.4518 22.5146V23.6658H26.8762C26.3006 23.6658 26.128 24.0112 26.128 24.3565V25.2199H27.3942L27.164 26.5437H26.0704V29.8245C28.3727 29.4792 30.0419 27.5222 30.0419 25.2199Z" fill="#6F82FD"/>
  <defs>
    <filter id="filter0_d_121_1531" x="0.334634" y="0.414284" width="50.3733" height="51.9877" filterUnits="userSpaceOnUse" color-interpolation-filters="sRGB">
      <feFlood flood-opacity="0" result="BackgroundImageFix"/>
      <feColorMatrix in="SourceAlpha" type="matrix" values="0 0 0 0 0 0 0 0 0 0 0 0 0 0 0 0 0 0 127 0" result="hardAlpha"/>
      <feOffset dy="1.18829"/>
      <feGaussianBlur stdDeviation="6.83268"/>
      <feComposite in2="hardAlpha" operator="out"/>
      <feColorMatrix type="matrix" values="0 0 0 0 0.113725 0 0 0 0 0.631373 0 0 0 0 0.94902 0 0 0 0.1 0"/>
      <feBlend mode="normal" in2="BackgroundImageFix" result="effect1_dropShadow_121_1531"/>
      <feBlend mode="normal" in="SourceGraphic" in2="effect1_dropShadow_121_1531" result="shape"/>
    </filter>
  </defs>
</svg>