<svg xmlns="http://www.w3.org/2000/svg" width="18" height="18" viewBox="0 0 18 18" fill="none">
  <path d="M8.92647 2.19922C11.1265 2.19922 11.4265 2.19922 12.3265 2.19922C13.1265 2.19922 13.5265 2.39922 13.8265 2.49922C14.2265 2.69922 14.5265 2.79922 14.8265 3.09922C15.1265 3.39922 15.3265 3.69922 15.4265 4.09922C15.5265 4.39922 15.6265 4.79922 15.7265 5.59922C15.7265 6.49922 15.7265 6.69922 15.7265 8.99922C15.7265 11.2992 15.7265 11.4992 15.7265 12.3992C15.7265 13.1992 15.5265 13.5992 15.4265 13.8992C15.2265 14.2992 15.1265 14.5992 14.8265 14.8992C14.5265 15.1992 14.2265 15.3992 13.8265 15.4992C13.5265 15.5992 13.1265 15.6992 12.3265 15.7992C11.4265 15.7992 11.2265 15.7992 8.92647 15.7992C6.62646 15.7992 6.42647 15.7992 5.52647 15.7992C4.72647 15.7992 4.32647 15.5992 4.02647 15.4992C3.62647 15.2992 3.32647 15.1992 3.02647 14.8992C2.72647 14.5992 2.52647 14.2992 2.42647 13.8992C2.32647 13.5992 2.22646 13.1992 2.12646 12.3992C2.12646 11.4992 2.12646 11.2992 2.12646 8.99922C2.12646 6.69922 2.12646 6.49922 2.12646 5.59922C2.12646 4.79922 2.32647 4.39922 2.42647 4.09922C2.62647 3.69922 2.72647 3.39922 3.02647 3.09922C3.32647 2.79922 3.62647 2.59922 4.02647 2.49922C4.32647 2.39922 4.72647 2.29922 5.52647 2.19922C6.42647 2.19922 6.72647 2.19922 8.92647 2.19922ZM8.92647 0.699219C6.62646 0.699219 6.42647 0.699219 5.52647 0.699219C4.62647 0.699219 4.02647 0.899219 3.52647 1.09922C3.02647 1.29922 2.52647 1.59922 2.02647 2.09922C1.52647 2.59922 1.32647 2.99922 1.02647 3.59922C0.826465 4.09922 0.726465 4.69922 0.626465 5.59922C0.626465 6.49922 0.626465 6.79922 0.626465 8.99922C0.626465 11.2992 0.626465 11.4992 0.626465 12.3992C0.626465 13.2992 0.826465 13.8992 1.02647 14.3992C1.22647 14.8992 1.52647 15.3992 2.02647 15.8992C2.52647 16.3992 2.92647 16.5992 3.52647 16.8992C4.02647 17.0992 4.62647 17.1992 5.52647 17.2992C6.42647 17.2992 6.72647 17.2992 8.92647 17.2992C11.1265 17.2992 11.4265 17.2992 12.3265 17.2992C13.2265 17.2992 13.8265 17.0992 14.3265 16.8992C14.8265 16.6992 15.3265 16.3992 15.8265 15.8992C16.3265 15.3992 16.5265 14.9992 16.8265 14.3992C17.0265 13.8992 17.1265 13.2992 17.2265 12.3992C17.2265 11.4992 17.2265 11.1992 17.2265 8.99922C17.2265 6.79922 17.2265 6.49922 17.2265 5.59922C17.2265 4.69922 17.0265 4.09922 16.8265 3.59922C16.6265 3.09922 16.3265 2.59922 15.8265 2.09922C15.3265 1.59922 14.9265 1.39922 14.3265 1.09922C13.8265 0.899219 13.2265 0.799219 12.3265 0.699219C11.4265 0.699219 11.2265 0.699219 8.92647 0.699219Z" fill="#929EAE"/>
  <path d="M8.92647 4.69922C6.52646 4.69922 4.62646 6.59922 4.62646 8.99922C4.62646 11.3992 6.52646 13.2992 8.92647 13.2992C11.3265 13.2992 13.2265 11.3992 13.2265 8.99922C13.2265 6.59922 11.3265 4.69922 8.92647 4.69922ZM8.92647 11.7992C7.42647 11.7992 6.12646 10.5992 6.12646 8.99922C6.12646 7.49922 7.32647 6.19922 8.92647 6.19922C10.4265 6.19922 11.7265 7.39922 11.7265 8.99922C11.7265 10.4992 10.4265 11.7992 8.92647 11.7992Z" fill="#929EAE"/>
  <path d="M13.3265 5.59922C13.8787 5.59922 14.3265 5.1515 14.3265 4.59922C14.3265 4.04693 13.8787 3.59922 13.3265 3.59922C12.7742 3.59922 12.3265 4.04693 12.3265 4.59922C12.3265 5.1515 12.7742 5.59922 13.3265 5.59922Z" fill="#929EAE"/>
</svg>