<svg xmlns="http://www.w3.org/2000/svg" width="24" height="24" viewBox="0 0 24 24" fill="none">
  <path d="M12 14.0922C10.875 14.0922 9.9 13.1922 9.9 11.9922C9.9 10.8672 10.8 9.89219 12 9.89219C13.125 9.89219 14.1 10.7922 14.1 11.9922C14.1 13.1172 13.125 14.0922 12 14.0922Z" fill="#612897"/>
  <path fill-rule="evenodd" clip-rule="evenodd" d="M14.55 6.89219H9.45C8.85 6.96719 8.55 7.04218 8.325 7.11719C8.025 7.19219 7.8 7.34219 7.575 7.56719C7.39696 7.74523 7.31284 7.92327 7.21116 8.13846C7.18437 8.19518 7.15628 8.25463 7.125 8.31719C7.1134 8.35199 7.1 8.3886 7.08564 8.42783C7.00718 8.64219 6.9 8.93501 6.9 9.44219V14.5422C6.975 15.1422 7.05 15.4422 7.125 15.6672C7.2 15.9672 7.35 16.1922 7.575 16.4172C7.75304 16.5952 7.93108 16.6793 8.14628 16.781C8.20304 16.8078 8.26239 16.8359 8.325 16.8672C8.35981 16.8788 8.39641 16.8922 8.43564 16.9065C8.65 16.985 8.94282 17.0922 9.45 17.0922H14.55C15.15 17.0172 15.45 16.9422 15.675 16.8672C15.975 16.7922 16.2 16.6422 16.425 16.4172C16.603 16.2391 16.6872 16.0611 16.7888 15.8459C16.8156 15.7892 16.8437 15.7298 16.875 15.6672C16.8866 15.6324 16.9 15.5958 16.9144 15.5565C16.9928 15.3422 17.1 15.0494 17.1 14.5422V9.44219C17.025 8.84219 16.95 8.54219 16.875 8.31719C16.8 8.01719 16.65 7.79219 16.425 7.56719C16.247 7.38915 16.0689 7.30503 15.8537 7.20335C15.797 7.17657 15.7375 7.14844 15.675 7.11719C15.6402 7.10558 15.6036 7.09219 15.5644 7.07783C15.35 6.99937 15.0572 6.89219 14.55 6.89219ZM12 8.76719C10.2 8.76719 8.775 10.1922 8.775 11.9922C8.775 13.7922 10.2 15.2172 12 15.2172C13.8 15.2172 15.225 13.7922 15.225 11.9922C15.225 10.1922 13.8 8.76719 12 8.76719ZM16.05 8.69219C16.05 9.1064 15.7142 9.44219 15.3 9.44219C14.8858 9.44219 14.55 9.1064 14.55 8.69219C14.55 8.27797 14.8858 7.94219 15.3 7.94219C15.7142 7.94219 16.05 8.27797 16.05 8.69219Z" fill="#612897"/>
  <path fill-rule="evenodd" clip-rule="evenodd" d="M0 3.74219C0 1.67112 1.67893 -0.0078125 3.75 -0.0078125H20.25C22.3211 -0.0078125 24 1.67112 24 3.74219V20.2422C24 22.3133 22.3211 23.9922 20.25 23.9922H3.75C1.67893 23.9922 0 22.3133 0 20.2422V3.74219ZM9.45 5.76719H14.55C15.225 5.84219 15.675 5.91719 16.05 6.06719C16.5 6.29219 16.8 6.44219 17.175 6.81719C17.55 7.19219 17.775 7.56719 17.925 7.94219C18.075 8.31719 18.225 8.76719 18.225 9.44219V14.5422C18.15 15.2172 18.075 15.6672 17.925 16.0422C17.7 16.4922 17.55 16.7922 17.175 17.1672C16.8 17.5422 16.425 17.7672 16.05 17.9172C15.675 18.0672 15.225 18.2172 14.55 18.2172H9.45C8.775 18.1422 8.325 18.0672 7.95 17.9172C7.5 17.6922 7.2 17.5422 6.825 17.1672C6.45 16.7922 6.225 16.4172 6.075 16.0422C5.925 15.6672 5.775 15.2172 5.775 14.5422V9.44219C5.85 8.76719 5.925 8.31719 6.075 7.94219C6.3 7.49219 6.45 7.19219 6.825 6.81719C7.2 6.44219 7.575 6.21719 7.95 6.06719C8.325 5.91719 8.775 5.76719 9.45 5.76719Z" fill="#612897"/>
</svg>