<svg xmlns="http://www.w3.org/2000/svg" width="32" height="33" viewBox="0 0 32 33" fill="none">
  <path d="M16 18.8312C14.5 18.8312 13.2 17.6312 13.2 16.0312C13.2 14.5312 14.4 13.2312 16 13.2312C17.5 13.2312 18.8 14.4312 18.8 16.0312C18.8 17.5312 17.5 18.8312 16 18.8312Z" fill="#FE2C55"/>
  <path fill-rule="evenodd" clip-rule="evenodd" d="M19.4 9.23125H12.6C11.8 9.33125 11.4 9.43125 11.1 9.53125C10.7 9.63125 10.4 9.83125 10.1 10.1312C9.86261 10.3686 9.75045 10.606 9.61489 10.893C9.57916 10.9686 9.5417 11.0478 9.5 11.1312C9.48453 11.1777 9.46667 11.2265 9.44752 11.2788C9.34291 11.5646 9.2 11.955 9.2 12.6312V19.4312C9.3 20.2312 9.4 20.6312 9.5 20.9312C9.6 21.3312 9.8 21.6312 10.1 21.9312C10.3374 22.1686 10.5748 22.2808 10.8617 22.4164C10.9374 22.4521 11.0165 22.4895 11.1 22.5312C11.1464 22.5467 11.1952 22.5646 11.2475 22.5837C11.5333 22.6883 11.9238 22.8312 12.6 22.8312H19.4C20.2 22.7312 20.6 22.6312 20.9 22.5312C21.3 22.4312 21.6 22.2312 21.9 21.9312C22.1374 21.6939 22.2495 21.4565 22.3851 21.1695C22.4209 21.0939 22.4583 21.0147 22.5 20.9312C22.5155 20.8848 22.5333 20.836 22.5525 20.7837C22.6571 20.4979 22.8 20.1075 22.8 19.4312V12.6312C22.7 11.8312 22.6 11.4312 22.5 11.1312C22.4 10.7312 22.2 10.4312 21.9 10.1312C21.6626 9.89386 21.4252 9.7817 21.1383 9.64613C21.0627 9.61043 20.9833 9.57292 20.9 9.53125C20.8536 9.51578 20.8048 9.49791 20.7525 9.47877C20.4667 9.37415 20.0762 9.23125 19.4 9.23125ZM16 11.7312C13.6 11.7312 11.7 13.6312 11.7 16.0312C11.7 18.4312 13.6 20.3312 16 20.3312C18.4 20.3312 20.3 18.4312 20.3 16.0312C20.3 13.6312 18.4 11.7312 16 11.7312ZM21.4 11.6312C21.4 12.1835 20.9523 12.6312 20.4 12.6312C19.8477 12.6312 19.4 12.1835 19.4 11.6312C19.4 11.079 19.8477 10.6312 20.4 10.6312C20.9523 10.6312 21.4 11.079 21.4 11.6312Z" fill="#FE2C55"/>
  <path fill-rule="evenodd" clip-rule="evenodd" d="M0 5.03125C0 2.26983 2.23858 0.03125 5 0.03125H27C29.7614 0.03125 32 2.26983 32 5.03125V27.0312C32 29.7927 29.7614 32.0312 27 32.0312H5C2.23858 32.0312 0 29.7927 0 27.0312V5.03125ZM12.6 7.73125H19.4C20.3 7.83125 20.9 7.93125 21.4 8.13125C22 8.43125 22.4 8.63125 22.9 9.13125C23.4 9.63125 23.7 10.1312 23.9 10.6312C24.1 11.1312 24.3 11.7312 24.3 12.6312V19.4312C24.2 20.3312 24.1 20.9312 23.9 21.4312C23.6 22.0312 23.4 22.4312 22.9 22.9312C22.4 23.4312 21.9 23.7312 21.4 23.9312C20.9 24.1312 20.3 24.3312 19.4 24.3312H12.6C11.7 24.2312 11.1 24.1312 10.6 23.9312C10 23.6312 9.6 23.4312 9.1 22.9312C8.6 22.4312 8.3 21.9312 8.1 21.4312C7.9 20.9312 7.7 20.3312 7.7 19.4312V12.6312C7.8 11.7312 7.9 11.1312 8.1 10.6312C8.4 10.0312 8.6 9.63125 9.1 9.13125C9.6 8.63125 10.1 8.33125 10.6 8.13125C11.1 7.93125 11.7 7.73125 12.6 7.73125Z" fill="#FE2C55"/>
</svg>