<svg xmlns="http://www.w3.org/2000/svg" width="18" height="17" viewBox="0 0 18 17" fill="none">
  <path d="M9.0002 1.5C11.2002 1.5 11.5002 1.5 12.4002 1.5C13.2002 1.5 13.6002 1.7 13.9002 1.8C14.3002 2 14.6002 2.1 14.9002 2.4C15.2002 2.7 15.4002 3 15.5002 3.4C15.6002 3.7 15.7002 4.1 15.8002 4.9C15.8002 5.8 15.8002 6 15.8002 8.3C15.8002 10.6 15.8002 10.8 15.8002 11.7C15.8002 12.5 15.6002 12.9 15.5002 13.2C15.3002 13.6 15.2002 13.9 14.9002 14.2C14.6002 14.5 14.3002 14.7 13.9002 14.8C13.6002 14.9 13.2002 15 12.4002 15.1C11.5002 15.1 11.3002 15.1 9.0002 15.1C6.7002 15.1 6.5002 15.1 5.6002 15.1C4.8002 15.1 4.4002 14.9 4.1002 14.8C3.7002 14.6 3.4002 14.5 3.1002 14.2C2.8002 13.9 2.6002 13.6 2.5002 13.2C2.4002 12.9 2.3002 12.5 2.2002 11.7C2.2002 10.8 2.2002 10.6 2.2002 8.3C2.2002 6 2.2002 5.8 2.2002 4.9C2.2002 4.1 2.4002 3.7 2.5002 3.4C2.7002 3 2.8002 2.7 3.1002 2.4C3.4002 2.1 3.7002 1.9 4.1002 1.8C4.4002 1.7 4.8002 1.6 5.6002 1.5C6.5002 1.5 6.8002 1.5 9.0002 1.5ZM9.0002 0C6.7002 0 6.5002 0 5.6002 0C4.7002 0 4.1002 0.200001 3.6002 0.400001C3.1002 0.600001 2.6002 0.900001 2.1002 1.4C1.6002 1.9 1.4002 2.3 1.1002 2.9C0.900196 3.4 0.800195 4 0.700195 4.9C0.700195 5.8 0.700195 6.1 0.700195 8.3C0.700195 10.6 0.700195 10.8 0.700195 11.7C0.700195 12.6 0.900196 13.2 1.1002 13.7C1.3002 14.2 1.6002 14.7 2.1002 15.2C2.6002 15.7 3.0002 15.9 3.6002 16.2C4.1002 16.4 4.7002 16.5 5.6002 16.6C6.5002 16.6 6.8002 16.6 9.0002 16.6C11.2002 16.6 11.5002 16.6 12.4002 16.6C13.3002 16.6 13.9002 16.4 14.4002 16.2C14.9002 16 15.4002 15.7 15.9002 15.2C16.4002 14.7 16.6002 14.3 16.9002 13.7C17.1002 13.2 17.2002 12.6 17.3002 11.7C17.3002 10.8 17.3002 10.5 17.3002 8.3C17.3002 6.1 17.3002 5.8 17.3002 4.9C17.3002 4 17.1002 3.4 16.9002 2.9C16.7002 2.4 16.4002 1.9 15.9002 1.4C15.4002 0.900001 15.0002 0.700001 14.4002 0.400001C13.9002 0.200001 13.3002 0.1 12.4002 0C11.5002 0 11.3002 0 9.0002 0Z" fill="black"/>
  <path d="M9.0002 4C6.6002 4 4.7002 5.9 4.7002 8.3C4.7002 10.7 6.6002 12.6 9.0002 12.6C11.4002 12.6 13.3002 10.7 13.3002 8.3C13.3002 5.9 11.4002 4 9.0002 4ZM9.0002 11.1C7.5002 11.1 6.2002 9.9 6.2002 8.3C6.2002 6.8 7.4002 5.5 9.0002 5.5C10.5002 5.5 11.8002 6.7 11.8002 8.3C11.8002 9.8 10.5002 11.1 9.0002 11.1Z" fill="black"/>
  <path d="M13.4002 4.9C13.9525 4.9 14.4002 4.45229 14.4002 3.9C14.4002 3.34772 13.9525 2.9 13.4002 2.9C12.8479 2.9 12.4002 3.34772 12.4002 3.9C12.4002 4.45229 12.8479 4.9 13.4002 4.9Z" fill="black"/>
</svg>