<svg width="112" height="37" viewBox="0 0 112 37" fill="none" xmlns="http://www.w3.org/2000/svg">
<g id="logo">
<path id="Rectangle 17" d="M90.6127 5.11371H112V31.754C112 31.754 94.9277 34.9433 99.6179 16.933C104.308 -1.07734 90.6127 31.754 90.6127 31.754V5.11371Z" fill="#612897"/>
<path id="&#226;&#128;&#153;" d="M87.656 5.62062C87.2797 5.62062 87.0061 5.5522 86.835 5.41537C86.3903 5.14171 86.014 4.81673 85.7062 4.44045C85.4325 4.06416 85.2957 3.51684 85.2957 2.79848C85.3299 2.28536 85.4496 1.84066 85.6549 1.46437C85.8601 1.05388 86.1509 0.763114 86.5272 0.592076C87.2455 0.215791 88.1691 0.0276489 89.298 0.0276489C90.119 0.0276489 90.7518 0.335519 91.1965 0.951258C91.6754 1.53279 91.9149 2.25115 91.9149 3.10635C91.9149 4.13258 91.607 5.32985 90.9913 6.69816C90.4097 8.03226 89.8282 9.0756 89.2467 9.82817C88.802 10.3413 88.306 10.786 87.7586 11.1623C87.2113 11.5386 86.7324 11.7267 86.3219 11.7267C85.5009 11.7267 84.9878 11.607 84.7826 11.3675C84.6115 11.0939 84.526 10.6321 84.526 9.9821C84.526 9.70844 84.8852 9.28085 85.6035 8.69931C86.1851 8.1862 86.5443 7.82702 86.6811 7.62177C87.1942 6.93761 87.5705 6.27056 87.8099 5.62062H87.656Z" fill="#612897"/>
<path id="Union" fill-rule="evenodd" clip-rule="evenodd" d="M64.1551 13.3316C64.1551 18.7557 58.8606 23.1529 52.3294 23.1529C51.4342 23.1529 50.5621 23.0703 49.7238 22.9137V31.9722H40.5037V14.3339L40.5653 14.3406C40.5246 14.0088 40.5037 13.6722 40.5037 13.3316C40.5037 7.90737 45.7983 3.51019 52.3294 3.51019C58.8606 3.51019 64.1551 7.90737 64.1551 13.3316ZM54.9352 13.5321C54.9352 15.0819 53.6788 16.3382 52.1291 16.3382C50.5793 16.3382 49.3229 15.0819 49.3229 13.5321C49.3229 11.9824 50.5793 10.726 52.1291 10.726C53.6788 10.726 54.9352 11.9824 54.9352 13.5321Z" fill="#612897"/>
<path id="Exclude" fill-rule="evenodd" clip-rule="evenodd" d="M23.6674 13.3318C23.6674 18.756 18.3729 23.1532 11.8417 23.1532C10.9464 23.1532 10.0744 23.0705 9.23602 22.914V31.9724H0.0159607V14.334H0.0767723C0.0365595 14.0045 0.0159607 13.6701 0.0159607 13.3318C0.0159607 7.90761 5.31052 3.51044 11.8417 3.51044C18.3729 3.51044 23.6674 7.90761 23.6674 13.3318ZM10.8393 16.3382C12.3891 16.3382 13.6454 15.0819 13.6454 13.5321C13.6454 11.9824 12.3891 10.726 10.8393 10.726C9.28957 10.726 8.03323 11.9824 8.03323 13.5321C8.03323 15.0819 9.28957 16.3382 10.8393 16.3382Z" fill="#612897"/>
<g id="Exclude_2" filter="url(#filter0_d_1055_2514)">
<path fill-rule="evenodd" clip-rule="evenodd" d="M31.885 23.1529C38.4161 23.1529 43.7107 18.7557 43.7107 13.3316C43.7107 7.90737 38.4161 3.51019 31.885 3.51019C25.3538 3.51019 20.0592 7.90737 20.0592 13.3316C20.0592 18.7557 25.3538 23.1529 31.885 23.1529ZM32.0855 16.3382C33.6353 16.3382 34.8916 15.0819 34.8916 13.5321C34.8916 11.9824 33.6353 10.726 32.0855 10.726C30.5357 10.726 29.2794 11.9824 29.2794 13.5321C29.2794 15.0819 30.5357 16.3382 32.0855 16.3382Z" fill="#612897"/>
</g>
<g id="Union_2" filter="url(#filter1_d_1055_2514)">
<path fill-rule="evenodd" clip-rule="evenodd" d="M86.604 13.3316C86.604 18.7557 81.3095 23.1529 74.7783 23.1529C73.883 23.1529 73.0109 23.0703 72.1726 22.9137V31.972H62.9525V14.3336L63.0143 14.3417C62.9735 14.0096 62.9526 13.6726 62.9526 13.3316C62.9526 7.90737 68.2471 3.51019 74.7783 3.51019C81.3095 3.51019 86.604 7.90737 86.604 13.3316ZM77.3839 13.532C77.3839 15.0818 76.1276 16.3381 74.5778 16.3381C73.0281 16.3381 71.7717 15.0818 71.7717 13.532C71.7717 11.9822 73.0281 10.7259 74.5778 10.7259C76.1276 10.7259 77.3839 11.9822 77.3839 13.532Z" fill="#612897"/>
</g>
</g>
<defs>
<filter id="filter0_d_1055_2514" x="16.8523" y="1.9067" width="30.0654" height="26.0567" filterUnits="userSpaceOnUse" color-interpolation-filters="sRGB">
<feFlood flood-opacity="0" result="BackgroundImageFix"/>
<feColorMatrix in="SourceAlpha" type="matrix" values="0 0 0 0 0 0 0 0 0 0 0 0 0 0 0 0 0 0 127 0" result="hardAlpha"/>
<feOffset dy="1.60349"/>
<feGaussianBlur stdDeviation="1.60349"/>
<feComposite in2="hardAlpha" operator="out"/>
<feColorMatrix type="matrix" values="0 0 0 0 0 0 0 0 0 0 0 0 0 0 0 0 0 0 0.25 0"/>
<feBlend mode="normal" in2="BackgroundImageFix" result="effect1_dropShadow_1055_2514"/>
<feBlend mode="normal" in="SourceGraphic" in2="effect1_dropShadow_1055_2514" result="shape"/>
</filter>
<filter id="filter1_d_1055_2514" x="59.7455" y="1.9067" width="30.0654" height="34.8757" filterUnits="userSpaceOnUse" color-interpolation-filters="sRGB">
<feFlood flood-opacity="0" result="BackgroundImageFix"/>
<feColorMatrix in="SourceAlpha" type="matrix" values="0 0 0 0 0 0 0 0 0 0 0 0 0 0 0 0 0 0 127 0" result="hardAlpha"/>
<feOffset dy="1.60349"/>
<feGaussianBlur stdDeviation="1.60349"/>
<feComposite in2="hardAlpha" operator="out"/>
<feColorMatrix type="matrix" values="0 0 0 0 0 0 0 0 0 0 0 0 0 0 0 0 0 0 0.25 0"/>
<feBlend mode="normal" in2="BackgroundImageFix" result="effect1_dropShadow_1055_2514"/>
<feBlend mode="normal" in="SourceGraphic" in2="effect1_dropShadow_1055_2514" result="shape"/>
</filter>
</defs>
</svg>
