<svg xmlns="http://www.w3.org/2000/svg" width="18" height="19" viewBox="0 0 18 19" fill="none">
  <path d="M7.71703 8.25586V14.3084C7.71703 15.7934 6.50203 17.0009 5.02453 17.0009C3.53953 17.0009 2.33203 15.7934 2.33203 14.3084C2.33203 12.8309 3.53953 11.6234 5.02453 11.6234C5.64703 11.6234 6.20953 11.8409 6.66703 12.1934V8.55586L7.71703 8.25586Z" fill="black"/>
  <path d="M15.6672 5.99023V12.8602C15.6672 14.3452 14.4597 15.5527 12.9747 15.5527C11.4972 15.5527 10.2822 14.3452 10.2822 12.8602C10.2822 11.3827 11.4972 10.1752 12.9747 10.1752C13.6047 10.1752 14.1672 10.3927 14.6247 10.7527V6.29023L15.6672 5.99023Z" fill="black"/>
  <path opacity="0.4" d="M15.668 4.38591V5.99091L6.66797 8.55591V5.56341C6.66797 4.46091 7.33547 3.60591 8.39297 3.32091L12.728 2.13591C13.6055 1.89591 14.348 1.97841 14.873 2.38341C15.4055 2.78091 15.668 3.45591 15.668 4.38591Z" fill="black"/>
</svg>