<svg xmlns="http://www.w3.org/2000/svg" width="15" height="16" viewBox="0 0 15 16" fill="none">
  <path d="M5.99837 6.30005V5.67719C5.78498 5.64868 5.56803 5.63086 5.34397 5.63086C2.67303 5.62736 0.5 7.80218 0.5 10.4789C0.5 12.1199 1.318 13.5722 2.56989 14.4514C1.76256 13.5864 1.26821 12.4224 1.26821 11.1481C1.26821 8.51051 3.38077 6.36057 5.99837 6.30005Z" fill="#25F4EE"/>
  <path d="M6.11572 13.3624C7.30716 13.3624 8.28163 12.412 8.32433 11.2303L8.3279 0.669189H10.2555C10.2164 0.452057 10.195 0.22781 10.195 0H7.56322L7.55966 10.5611C7.51701 11.7428 6.54248 12.6932 5.35107 12.6932C4.9812 12.6932 4.63266 12.6007 4.32324 12.4369C4.72157 12.9958 5.37597 13.3624 6.11572 13.3624Z" fill="#25F4EE"/>
  <path d="M13.8585 4.25402V3.66674C13.1223 3.66674 12.4394 3.44959 11.8633 3.07227C12.3754 3.65961 13.0689 4.08677 13.8585 4.25402Z" fill="#25F4EE"/>
  <path d="M11.8632 3.07257C11.3013 2.42832 10.9634 1.58827 10.9634 0.669922H10.2593C10.4406 1.67371 11.0382 2.53512 11.8632 3.07257Z" fill="#FE2C55"/>
  <path d="M5.3474 8.26174C4.12752 8.26174 3.13525 9.25486 3.13525 10.4758C3.13525 11.3265 3.61894 12.0669 4.32312 12.4371C4.05995 12.074 3.90346 11.6291 3.90346 11.1449C3.90346 9.92405 4.89572 8.93093 6.11563 8.93093C6.34324 8.93093 6.56372 8.97007 6.77001 9.03415V6.3432C6.5566 6.31469 6.33968 6.29688 6.11563 6.29688C6.07649 6.29688 6.04092 6.30044 6.0018 6.30044V8.36496C5.79197 8.30088 5.57502 8.26174 5.3474 8.26174Z" fill="#FE2C55"/>
  <path d="M13.8582 4.25391V6.30061C12.4925 6.30061 11.2264 5.86282 10.195 5.12242V10.4795C10.195 13.1527 8.02198 15.3311 5.34746 15.3311C4.31607 15.3311 3.35581 15.0036 2.56982 14.4519C3.45539 15.4023 4.71795 16.0003 6.11569 16.0003C8.7866 16.0003 10.9632 13.8254 10.9632 11.1487V5.79161C11.9946 6.53201 13.2607 6.9698 14.6264 6.9698V4.33581C14.3596 4.33581 14.1036 4.3073 13.8582 4.25391Z" fill="#FE2C55"/>
  <path d="M10.1949 10.4799V5.12284C11.2263 5.86324 12.4924 6.30104 13.8581 6.30104V4.25433C13.0686 4.08707 12.3751 3.65991 11.8629 3.07257C11.0378 2.53512 10.4439 1.67371 10.2554 0.669922H8.32774L8.32418 11.231C8.28153 12.4127 7.307 13.3631 6.11561 13.3631C5.37584 13.3631 4.72499 12.9965 4.31955 12.4412C3.61536 12.0675 3.13168 11.3307 3.13168 10.4799C3.13168 9.25902 4.12394 8.2659 5.34383 8.2659C5.57144 8.2659 5.79195 8.30504 5.99823 8.36912V6.3046C3.38064 6.36156 1.26807 8.51149 1.26807 11.1491C1.26807 12.4234 1.76242 13.5838 2.56975 14.4523C3.35574 15.0041 4.316 15.3315 5.34738 15.3315C8.01834 15.3315 10.1949 13.1531 10.1949 10.4799Z" fill="#929EAE"/>
</svg>