<svg xmlns="http://www.w3.org/2000/svg" width="32" height="33" viewBox="0 0 32 33" fill="none">
  <path fill-rule="evenodd" clip-rule="evenodd" d="M5 0.03125C2.23859 0.03125 0 2.26983 0 5.03125V27.0312C0 29.7927 2.23859 32.0312 5 32.0312H27C29.7614 32.0312 32 29.7927 32 27.0312V5.03125C32 2.26983 29.7614 0.03125 27 0.03125H5ZM19.1182 8.03125C19.1182 8.269 19.1404 8.50315 19.1813 8.72976C19.3781 9.77731 19.998 10.6763 20.8592 11.2372C21.4605 11.631 22.1732 11.8576 22.9415 11.8576L22.9413 12.4705V14.6066C21.516 14.6066 20.1946 14.1497 19.1182 13.3769V18.9678C19.1182 21.7577 16.8466 24.0312 14.0591 24.0312C12.9827 24.0312 11.9805 23.6894 11.1602 23.1136C9.85367 22.196 9 20.6804 9 18.9678C9 16.1742 11.2679 13.9045 14.0554 13.9081C14.2892 13.9081 14.5157 13.9268 14.7384 13.9565V14.6066L14.7302 14.6105L14.7383 14.6103V16.7649C14.5231 16.698 14.2929 16.6572 14.0554 16.6572C12.7823 16.6572 11.7467 17.6937 11.7467 18.9678C11.7467 19.8557 12.2515 20.6247 12.9864 21.0148C12.9973 21.0296 13.0083 21.0444 13.0195 21.059C13.0111 21.0427 13.0013 21.0267 12.9901 21.011C13.313 21.1819 13.6768 21.2785 14.0628 21.2785C15.3062 21.2785 16.3233 20.2867 16.3678 19.0533L16.3715 8.03125H19.1182Z" fill="black"/>
</svg>