<svg xmlns="http://www.w3.org/2000/svg" width="55" height="57" viewBox="0 0 55 57" fill="none">
  <g filter="url(#filter0_d_121_1583)">
    <path d="M14.8754 25.9607C14.8754 19.355 20.2304 14 26.8361 14H39.5837V28.0853C39.5837 34.9084 34.0526 40.4395 27.2295 40.4395C20.4065 40.4395 14.8754 34.9084 14.8754 28.0853V25.9607Z" fill="black"/>
  </g>
  <path d="M26.2565 26.1576V25.7139C26.1045 25.6936 25.9499 25.6809 25.7903 25.6809C23.8877 25.6784 22.3397 27.2276 22.3397 29.1344C22.3397 30.3033 22.9224 31.3379 23.8142 31.9642C23.2391 31.348 22.887 30.5189 22.887 29.6111C22.887 27.7322 24.3918 26.2007 26.2565 26.1576Z" fill="#25F4EE"/>
  <path d="M26.3401 31.1881C27.1888 31.1881 27.883 30.5111 27.9134 29.6693L27.9159 22.1461H29.2891C29.2612 21.9915 29.246 21.8317 29.246 21.6694H27.3712L27.3687 29.1926C27.3383 30.0344 26.6441 30.7114 25.7954 30.7114C25.5319 30.7114 25.2836 30.6455 25.0632 30.5289C25.347 30.927 25.8131 31.1881 26.3401 31.1881Z" fill="#25F4EE"/>
  <path d="M31.8555 24.6995V24.2811C31.3311 24.2811 30.8446 24.1265 30.4342 23.8577C30.799 24.2761 31.293 24.5803 31.8555 24.6995Z" fill="#25F4EE"/>
  <path d="M30.4342 23.8578C30.0339 23.3988 29.7932 22.8004 29.7932 22.1462H29.2916C29.4208 22.8613 29.8465 23.4749 30.4342 23.8578Z" fill="#FE2C55"/>
  <path d="M25.7929 27.5547C24.9239 27.5547 24.217 28.2621 24.217 29.1319C24.217 29.7379 24.5616 30.2653 25.0632 30.529C24.8757 30.2704 24.7643 29.9534 24.7643 29.6086C24.7643 28.7388 25.4711 28.0314 26.3401 28.0314C26.5022 28.0314 26.6593 28.0593 26.8063 28.1049V26.188C26.6542 26.1677 26.4997 26.155 26.3401 26.155C26.3122 26.155 26.2869 26.1576 26.259 26.1576V27.6282C26.1095 27.5826 25.955 27.5547 25.7929 27.5547Z" fill="#FE2C55"/>
  <path d="M31.8554 24.6995V26.1574C30.8825 26.1574 29.9806 25.8456 29.2459 25.3181V29.1343C29.2459 31.0385 27.6979 32.5903 25.7927 32.5903C25.058 32.5903 24.374 32.357 23.8141 31.964C24.4449 32.641 25.3443 33.067 26.34 33.067C28.2426 33.067 29.7931 31.5177 29.7931 29.611V25.7948C30.5278 26.3223 31.4297 26.6341 32.4026 26.6341V24.7578C32.2126 24.7578 32.0302 24.7375 31.8554 24.6995Z" fill="#FE2C55"/>
  <path d="M29.2459 29.1344V25.3183C29.9806 25.8457 30.8825 26.1576 31.8554 26.1576V24.6996C31.2929 24.5804 30.7989 24.2762 30.4341 23.8578C29.8463 23.4749 29.4232 22.8613 29.2889 22.1462H27.9158L27.9133 29.6694C27.8829 30.5112 27.1887 31.1882 26.34 31.1882C25.813 31.1882 25.3494 30.9271 25.0606 30.5315C24.5589 30.2653 24.2144 29.7404 24.2144 29.1344C24.2144 28.2647 24.9212 27.5572 25.7902 27.5572C25.9524 27.5572 26.1094 27.5851 26.2564 27.6308V26.1601C24.3917 26.2007 22.8868 27.7322 22.8868 29.6111C22.8868 30.5188 23.239 31.3455 23.8141 31.9641C24.374 32.3572 25.058 32.5904 25.7927 32.5904C27.6954 32.5904 29.2459 31.0386 29.2459 29.1344Z" fill="white"/>
  <defs>
    <filter id="filter0_d_121_1583" x="0.222143" y="0.62097" width="54.0148" height="55.7459" filterUnits="userSpaceOnUse" color-interpolation-filters="sRGB">
      <feFlood flood-opacity="0" result="BackgroundImageFix"/>
      <feColorMatrix in="SourceAlpha" type="matrix" values="0 0 0 0 0 0 0 0 0 0 0 0 0 0 0 0 0 0 127 0" result="hardAlpha"/>
      <feOffset dy="1.27419"/>
      <feGaussianBlur stdDeviation="7.32661"/>
      <feComposite in2="hardAlpha" operator="out"/>
      <feColorMatrix type="matrix" values="0 0 0 0 0 0 0 0 0 0 0 0 0 0 0 0 0 0 0.1 0"/>
      <feBlend mode="normal" in2="BackgroundImageFix" result="effect1_dropShadow_121_1583"/>
      <feBlend mode="normal" in="SourceGraphic" in2="effect1_dropShadow_121_1583" result="shape"/>
    </filter>
  </defs>
</svg>