<svg width="19" height="21" viewBox="0 0 19 21" fill="none" xmlns="http://www.w3.org/2000/svg">
<path d="M7.39655 8.62761V7.84348C7.12791 7.80759 6.85479 7.78516 6.57272 7.78516C3.21025 7.78075 0.474609 10.5186 0.474609 13.8884C0.474609 15.9542 1.50439 17.7825 3.08041 18.8894C2.06406 17.8005 1.44171 16.3351 1.44171 14.7309C1.44171 11.4104 4.10124 8.7038 7.39655 8.62761Z" fill="#25F4EE"/>
<path d="M7.54367 17.5173C9.04359 17.5173 10.2704 16.3209 10.3241 14.8332L10.3286 1.53776H12.7553C12.706 1.26441 12.6792 0.982105 12.6792 0.695312H9.36594L9.36146 13.9907C9.30777 15.4785 8.08093 16.6749 6.58105 16.6749C6.11541 16.6749 5.67664 16.5584 5.28711 16.3522C5.78857 17.0558 6.6124 17.5173 7.54367 17.5173Z" fill="#25F4EE"/>
<path d="M17.2911 6.05022V5.31088C16.3643 5.31088 15.5046 5.03752 14.7793 4.5625C15.424 5.30191 16.2971 5.83966 17.2911 6.05022Z" fill="#25F4EE"/>
<path d="M14.779 4.56182C14.0716 3.75077 13.6462 2.69323 13.6462 1.53711H12.7598C12.9881 2.80078 13.7403 3.88522 14.779 4.56182Z" fill="#FE2C55"/>
<path d="M6.57786 11.0966C5.04214 11.0966 3.79297 12.3469 3.79297 13.8839C3.79297 14.9549 4.40188 15.8869 5.28839 16.353C4.95707 15.8959 4.76007 15.3358 4.76007 14.7263C4.76007 13.1893 6.00924 11.9391 7.54499 11.9391C7.83153 11.9391 8.10909 11.9883 8.36879 12.069V8.68136C8.10012 8.64548 7.82704 8.62305 7.54499 8.62305C7.49571 8.62305 7.45094 8.62753 7.40168 8.62753V11.2266C7.13752 11.1459 6.86441 11.0966 6.57786 11.0966Z" fill="#FE2C55"/>
<path d="M17.2911 6.05078V8.6274C15.5718 8.6274 13.9779 8.07626 12.6794 7.14416V13.8882C12.6794 17.2535 9.94384 19.996 6.57686 19.996C5.27844 19.996 4.06957 19.5837 3.08008 18.8891C4.19493 20.0856 5.78437 20.8384 7.54399 20.8384C10.9064 20.8384 13.6466 18.1005 13.6466 14.7307V7.98661C14.945 8.9187 16.5389 9.46984 18.2582 9.46984V6.15389C17.9224 6.15389 17.6 6.118 17.2911 6.05078Z" fill="#FE2C55"/>
<path d="M12.6794 13.887V7.14292C13.9779 8.07502 15.5718 8.62616 17.2911 8.62616V6.04955C16.2972 5.83899 15.4241 5.30123 14.7794 4.56182C13.7406 3.88522 12.9929 2.80078 12.7556 1.53711H10.3289L10.3244 14.8325C10.2707 16.3202 9.04387 17.5167 7.54402 17.5167C6.61271 17.5167 5.79336 17.0551 5.28295 16.3561C4.39643 15.8855 3.78752 14.958 3.78752 13.887C3.78752 12.35 5.03669 11.0997 6.57241 11.0997C6.85896 11.0997 7.13656 11.149 7.39624 11.2297V8.63065C4.10094 8.70235 1.44141 11.4089 1.44141 14.7294C1.44141 16.3336 2.06375 17.7945 3.0801 18.8879C4.06959 19.5825 5.27847 19.9947 6.57689 19.9947C9.93937 19.9947 12.6794 17.2523 12.6794 13.887Z" fill="white"/>
</svg>
