<svg xmlns="http://www.w3.org/2000/svg" width="16" height="16" viewBox="0 0 16 16" fill="none">
  <path d="M6.43538 6.30005V5.67719C6.22199 5.64868 6.00504 5.63086 5.78098 5.63086C3.11004 5.62736 0.937012 7.80218 0.937012 10.4789C0.937012 12.1199 1.75501 13.5722 3.0069 14.4514C2.19957 13.5864 1.70522 12.4224 1.70522 11.1481C1.70522 8.51051 3.81779 6.36057 6.43538 6.30005Z" fill="#25F4EE"/>
  <path d="M6.55273 13.3624C7.74417 13.3624 8.71864 12.412 8.76135 11.2303L8.76491 0.669189H10.6925C10.6534 0.452057 10.6321 0.22781 10.6321 0H8.00023L7.99667 10.5611C7.95402 11.7428 6.9795 12.6932 5.78808 12.6932C5.41821 12.6932 5.06967 12.6007 4.76025 12.4369C5.15858 12.9958 5.81298 13.3624 6.55273 13.3624Z" fill="#25F4EE"/>
  <path d="M14.2955 4.25402V3.66674C13.5593 3.66674 12.8764 3.44959 12.3003 3.07227C12.8124 3.65961 13.5059 4.08677 14.2955 4.25402Z" fill="#25F4EE"/>
  <path d="M12.3002 3.07257C11.7383 2.42832 11.4004 1.58827 11.4004 0.669922H10.6963C10.8776 1.67371 11.4752 2.53512 12.3002 3.07257Z" fill="#FE2C55"/>
  <path d="M5.78441 8.26174C4.56453 8.26174 3.57227 9.25486 3.57227 10.4758C3.57227 11.3265 4.05595 12.0669 4.76014 12.4371C4.49696 12.074 4.34047 11.6291 4.34047 11.1449C4.34047 9.92405 5.33273 8.93093 6.55264 8.93093C6.78025 8.93093 7.00074 8.97007 7.20702 9.03415V6.3432C6.99361 6.31469 6.77669 6.29688 6.55264 6.29688C6.5135 6.29688 6.47793 6.30044 6.43881 6.30044V8.36496C6.22898 8.30088 6.01203 8.26174 5.78441 8.26174Z" fill="#FE2C55"/>
  <path d="M14.2952 4.25391V6.30061C12.9295 6.30061 11.6634 5.86282 10.632 5.12242V10.4795C10.632 13.1527 8.45899 15.3311 5.78447 15.3311C4.75308 15.3311 3.79283 15.0036 3.00684 14.4519C3.8924 15.4023 5.15497 16.0003 6.5527 16.0003C9.22361 16.0003 11.4002 13.8254 11.4002 11.1487V5.79161C12.4316 6.53201 13.6977 6.9698 15.0634 6.9698V4.33581C14.7967 4.33581 14.5406 4.3073 14.2952 4.25391Z" fill="#FE2C55"/>
  <path d="M10.6319 10.4799V5.12284C11.6633 5.86324 12.9294 6.30104 14.2951 6.30104V4.25433C13.5056 4.08707 12.8121 3.65991 12.2999 3.07257C11.4748 2.53512 10.8809 1.67371 10.6924 0.669922H8.76475L8.76119 11.231C8.71854 12.4127 7.74401 13.3631 6.55263 13.3631C5.81285 13.3631 5.162 12.9965 4.75657 12.4412C4.05237 12.0675 3.56869 11.3307 3.56869 10.4799C3.56869 9.25902 4.56095 8.2659 5.78084 8.2659C6.00845 8.2659 6.22896 8.30504 6.43524 8.36912V6.3046C3.81765 6.36156 1.70508 8.51149 1.70508 11.1491C1.70508 12.4234 2.19943 13.5838 3.00676 14.4523C3.79275 15.0041 4.75301 15.3315 5.7844 15.3315C8.45535 15.3315 10.6319 13.1531 10.6319 10.4799Z" fill="black"/>
</svg>