<svg xmlns="http://www.w3.org/2000/svg" width="24" height="24" viewBox="0 0 24 24" fill="none">
  <path fill-rule="evenodd" clip-rule="evenodd" d="M3.75 -0.0078125C1.67894 -0.0078125 0 1.67112 0 3.74219V20.2422C0 22.3133 1.67894 23.9922 3.75 23.9922H20.25C22.3211 23.9922 24 22.3133 24 20.2422V3.74219C24 1.67112 22.3211 -0.0078125 20.25 -0.0078125H3.75ZM14.3387 5.99219C14.3387 6.1705 14.3553 6.34611 14.386 6.51607C14.5336 7.30173 14.9985 7.97596 15.6444 8.39663C16.0954 8.69197 16.6299 8.86194 17.2061 8.86194L17.206 9.32163V10.9237C16.137 10.9237 15.146 10.581 14.3386 10.0015V14.1946C14.3386 16.287 12.635 17.9922 10.5443 17.9922C9.73702 17.9922 8.98535 17.7358 8.37012 17.304C7.39025 16.6158 6.75 15.479 6.75 14.1946C6.75 12.0994 8.45091 10.3971 10.5415 10.3999C10.7169 10.3999 10.8867 10.4138 11.0538 10.4361V10.9237L11.0477 10.9266L11.0538 10.9265V12.5424C10.8923 12.4923 10.7197 12.4616 10.5415 12.4616C9.58669 12.4616 8.81001 13.239 8.81001 14.1946C8.81001 14.8606 9.1886 15.4373 9.73979 15.7298C9.74796 15.741 9.75625 15.7521 9.76465 15.763C9.75831 15.7508 9.75098 15.7388 9.74261 15.727C9.98479 15.8552 10.2576 15.9276 10.5471 15.9276C11.4797 15.9276 12.2425 15.1837 12.2758 14.2587L12.2786 5.99219H14.3387Z" fill="#612897"/>
</svg>