<svg width="20" height="21" viewBox="0 0 20 21" fill="none" xmlns="http://www.w3.org/2000/svg">
<path d="M10 11.9577C9.65833 11.9577 9.375 11.6743 9.375 11.3327V7.16602C9.375 6.82435 9.65833 6.54102 10 6.54102C10.3417 6.54102 10.625 6.82435 10.625 7.16602V11.3327C10.625 11.6743 10.3417 11.9577 10 11.9577Z" fill="#929EAE"/>
<path d="M10.0002 19.4583C5.6335 19.4583 2.0835 15.9083 2.0835 11.5417C2.0835 7.175 5.6335 3.625 10.0002 3.625C14.3668 3.625 17.9168 7.175 17.9168 11.5417C17.9168 11.8833 17.6335 12.1667 17.2918 12.1667C16.9502 12.1667 16.6668 11.8833 16.6668 11.5417C16.6668 7.86667 13.6752 4.875 10.0002 4.875C6.32516 4.875 3.3335 7.86667 3.3335 11.5417C3.3335 15.2167 6.32516 18.2083 10.0002 18.2083C10.3418 18.2083 10.6252 18.4917 10.6252 18.8333C10.6252 19.175 10.3418 19.4583 10.0002 19.4583Z" fill="#929EAE"/>
<path d="M12.5 2.79102H7.5C7.15833 2.79102 6.875 2.50768 6.875 2.16602C6.875 1.82435 7.15833 1.54102 7.5 1.54102H12.5C12.8417 1.54102 13.125 1.82435 13.125 2.16602C13.125 2.50768 12.8417 2.79102 12.5 2.79102Z" fill="#929EAE"/>
<path d="M13.4582 18.8494C13.1665 18.8494 12.8998 18.7827 12.6582 18.641C12.1082 18.3244 11.7915 17.6827 11.7915 16.8827V14.9577C11.7915 14.1577 12.1082 13.516 12.6582 13.1994C13.2082 12.8827 13.9165 12.9327 14.6082 13.3244L16.2748 14.291C16.9665 14.691 17.3665 15.2827 17.3665 15.916C17.3665 16.5494 16.9665 17.141 16.2748 17.541L14.6082 18.5077C14.2248 18.7327 13.8332 18.8494 13.4582 18.8494ZM13.4665 14.2327C13.3998 14.2327 13.3332 14.2494 13.2832 14.2744C13.1332 14.3577 13.0415 14.616 13.0415 14.9494V16.8744C13.0415 17.2077 13.1332 17.466 13.2832 17.5494C13.4332 17.6327 13.6998 17.591 13.9832 17.4244L15.6498 16.4577C15.9415 16.291 16.1165 16.0827 16.1165 15.916C16.1165 15.7494 15.9415 15.541 15.6498 15.3744L13.9832 14.4077C13.7915 14.291 13.6082 14.2327 13.4665 14.2327Z" fill="#929EAE"/>
</svg>
