<svg xmlns="http://www.w3.org/2000/svg" width="32" height="33" viewBox="0 0 32 33" fill="none">
  <path fill-rule="evenodd" clip-rule="evenodd" d="M0 5.03125C0 2.26983 2.23858 0.03125 5 0.03125H27C29.7614 0.03125 32 2.26983 32 5.03125V27.0312C32 29.7927 29.7614 32.0312 27 32.0312H5C2.23858 32.0312 0 29.7927 0 27.0312V5.03125ZM22.1 11.5312C22.8 11.4312 23.4 11.3313 24 11.0312C23.6 11.7312 23 12.3313 22.3 12.7312C22.5 17.4312 19.1 22.5312 13 22.5312C11.2 22.5312 9.5 21.9312 8 21.0312C9.7 21.2313 11.5 20.7312 12.7 19.8312C11.2 19.8312 10 18.8312 9.6 17.5312C10.1 17.6313 10.6 17.5312 11.1 17.4312C9.6 17.0312 8.5 15.6313 8.5 14.1313C9 14.3313 9.5 14.5312 10 14.5312C8.6 13.5312 8.1 11.6313 9 10.1313C10.7 12.1313 13.1 13.4312 15.8 13.5312C15.3 11.5312 16.9 9.53125 19 9.53125C19.9 9.53125 20.8 9.93125 21.4 10.5312C22.2 10.3313 22.9 10.1312 23.5 9.73125C23.3 10.5312 22.8 11.1313 22.1 11.5312Z" fill="#2487FB"/>
</svg>