<svg xmlns="http://www.w3.org/2000/svg" width="51" height="53" viewBox="0 0 51 53" fill="none">
  <g filter="url(#filter0_d_121_1597)">
    <path d="M13.9573 24.0458C13.9573 17.8854 18.9513 12.8914 25.1117 12.8914H36.9999V26.0271C36.9999 32.3902 31.8416 37.5484 25.4786 37.5484C19.1155 37.5484 13.9573 32.3902 13.9573 26.0271V24.0458Z" fill="white"/>
  </g>
  <path d="M29.428 22.8545C29.1263 23.0053 28.8247 23.0555 28.4728 23.1058C28.8247 22.9047 29.0761 22.6031 29.1766 22.2009C28.875 22.402 28.5231 22.5025 28.1209 22.6031C27.8192 22.3014 27.3668 22.1003 26.9143 22.1003C25.8585 22.1003 25.0542 23.1058 25.3055 24.1113C23.9481 24.061 22.7416 23.4075 21.8869 22.402C21.4344 23.1561 21.6858 24.1113 22.3896 24.614C22.1383 24.614 21.8869 24.5135 21.6355 24.4129C21.6355 25.1671 22.1885 25.8709 22.9426 26.072C22.6913 26.1223 22.4399 26.1725 22.1885 26.1223C22.3896 26.7758 22.9929 27.2786 23.747 27.2786C23.1437 27.731 22.2388 27.9824 21.3842 27.8818C22.1383 28.3343 22.9929 28.636 23.8979 28.636C26.9646 28.636 28.6739 26.072 28.5733 23.7091C28.9252 23.508 29.2269 23.2064 29.428 22.8545Z" fill="#1DA1F2"/>
  <defs>
    <filter id="filter0_d_121_1597" x="0.291909" y="0.414284" width="50.3733" height="51.9877" filterUnits="userSpaceOnUse" color-interpolation-filters="sRGB">
      <feFlood flood-opacity="0" result="BackgroundImageFix"/>
      <feColorMatrix in="SourceAlpha" type="matrix" values="0 0 0 0 0 0 0 0 0 0 0 0 0 0 0 0 0 0 127 0" result="hardAlpha"/>
      <feOffset dy="1.18829"/>
      <feGaussianBlur stdDeviation="6.83268"/>
      <feComposite in2="hardAlpha" operator="out"/>
      <feColorMatrix type="matrix" values="0 0 0 0 0.113725 0 0 0 0 0.631373 0 0 0 0 0.94902 0 0 0 0.1 0"/>
      <feBlend mode="normal" in2="BackgroundImageFix" result="effect1_dropShadow_121_1597"/>
      <feBlend mode="normal" in="SourceGraphic" in2="effect1_dropShadow_121_1597" result="shape"/>
    </filter>
  </defs>
</svg>