<svg xmlns="http://www.w3.org/2000/svg" width="17" height="14" viewBox="0 0 17 14" fill="none">
  <path d="M16.2263 2C15.6263 2.3 15.0263 2.4 14.3263 2.5C15.0263 2.1 15.5263 1.5 15.7263 0.7C15.1263 1.1 14.4263 1.3 13.6263 1.5C13.0263 0.9 12.1263 0.5 11.2263 0.5C9.12632 0.5 7.52632 2.5 8.02632 4.5C5.32632 4.4 2.92632 3.1 1.22632 1.1C0.326318 2.6 0.826318 4.5 2.22632 5.5C1.72632 5.5 1.22632 5.3 0.726318 5.1C0.726318 6.6 1.82632 8 3.32632 8.4C2.82632 8.5 2.32632 8.6 1.82632 8.5C2.22632 9.8 3.42632 10.8 4.92632 10.8C3.72632 11.7 1.92632 12.2 0.226318 12C1.72632 12.9 3.42632 13.5 5.22632 13.5C11.3263 13.5 14.7263 8.4 14.5263 3.7C15.2263 3.3 15.8263 2.7 16.2263 2Z" fill="#929EAE"/>
</svg>