<svg xmlns="http://www.w3.org/2000/svg" width="24" height="24" viewBox="0 0 24 24" fill="none">
  <path fill-rule="evenodd" clip-rule="evenodd" d="M0 3.74219C0 1.67112 1.67893 -0.0078125 3.75 -0.0078125H20.25C22.3211 -0.0078125 24 1.67112 24 3.74219V20.2422C24 22.3133 22.3211 23.9922 20.25 23.9922H3.75C1.67893 23.9922 0 22.3133 0 20.2422V3.74219ZM16.575 8.61719C17.1 8.54219 17.55 8.46719 18 8.24219C17.7 8.76719 17.25 9.21719 16.725 9.51719C16.875 13.0422 14.325 16.8672 9.75 16.8672C8.4 16.8672 7.125 16.4172 6 15.7422C7.275 15.8922 8.625 15.5172 9.525 14.8422C8.4 14.8422 7.5 14.0922 7.2 13.1172C7.575 13.1922 7.95 13.1172 8.325 13.0422C7.2 12.7422 6.375 11.6922 6.375 10.5672C6.75 10.7172 7.125 10.8672 7.5 10.8672C6.45 10.1172 6.075 8.69219 6.75 7.56719C8.025 9.06719 9.825 10.0422 11.85 10.1172C11.475 8.61719 12.675 7.11719 14.25 7.11719C14.925 7.11719 15.6 7.41719 16.05 7.86719C16.65 7.71719 17.175 7.56719 17.625 7.26719C17.475 7.86719 17.1 8.31719 16.575 8.61719Z" fill="#612897"/>
</svg>