<svg width="21" height="20" viewBox="0 0 21 20" fill="none" xmlns="http://www.w3.org/2000/svg">
<path opacity="0.4" d="M15.4385 5.85442C15.39 5.84632 15.3333 5.84632 15.2847 5.85442C14.1677 5.81395 13.2773 4.89928 13.2773 3.76608C13.2773 2.60859 14.2082 1.67773 15.3657 1.67773C16.5232 1.67773 17.454 2.61668 17.454 3.76608C17.4459 4.89928 16.5556 5.81395 15.4385 5.85442Z" stroke="black" stroke-width="1.61887" stroke-linecap="round" stroke-linejoin="round"/>
<path opacity="0.4" d="M14.6044 11.7468C15.7133 11.933 16.9355 11.7387 17.7935 11.164C18.9348 10.4031 18.9348 9.15659 17.7935 8.39573C16.9274 7.82103 15.689 7.62676 14.5801 7.82102" stroke="black" stroke-width="1.61887" stroke-linecap="round" stroke-linejoin="round"/>
<path opacity="0.4" d="M5.70104 5.85442C5.74961 5.84632 5.80626 5.84632 5.85483 5.85442C6.97185 5.81395 7.86223 4.89928 7.86223 3.76608C7.86223 2.60859 6.93138 1.67773 5.77389 1.67773C4.6164 1.67773 3.68555 2.61668 3.68555 3.76608C3.69364 4.89928 4.58402 5.81395 5.70104 5.85442Z" stroke="black" stroke-width="1.61887" stroke-linecap="round" stroke-linejoin="round"/>
<path opacity="0.4" d="M6.53538 11.7468C5.42646 11.933 4.20421 11.7387 3.34621 11.164C2.20491 10.4031 2.20491 9.15659 3.34621 8.39573C4.21231 7.82103 5.45074 7.62676 6.55966 7.82102" stroke="black" stroke-width="1.61887" stroke-linecap="round" stroke-linejoin="round"/>
<path d="M10.585 11.8974C10.5364 11.8893 10.4798 11.8893 10.4312 11.8974C9.31421 11.8569 8.42383 10.9423 8.42383 9.80905C8.42383 8.65155 9.35468 7.7207 10.5122 7.7207C11.6697 7.7207 12.6005 8.65965 12.6005 9.80905C12.5924 10.9423 11.702 11.865 10.585 11.8974Z" stroke="black" stroke-width="1.61887" stroke-linecap="round" stroke-linejoin="round"/>
<path d="M8.22902 14.4482C7.08772 15.2091 7.08772 16.4556 8.22902 17.2165C9.52412 18.0825 11.6448 18.0825 12.9399 17.2165C14.0812 16.4556 14.0812 15.2091 12.9399 14.4482C11.6529 13.5902 9.52412 13.5902 8.22902 14.4482Z" stroke="black" stroke-width="1.61887" stroke-linecap="round" stroke-linejoin="round"/>
</svg>
