<svg width="20" height="21" viewBox="0 0 20 21" fill="none" xmlns="http://www.w3.org/2000/svg">
<path d="M14.7834 19.4576H6.36676C6.10843 19.4576 5.8751 19.2992 5.78343 19.0492C5.69176 18.7992 5.75842 18.5326 5.95842 18.3576C6.54176 17.8409 6.88342 17.0992 6.88342 16.3242C6.88342 14.8326 5.66676 13.6159 4.17509 13.6159C3.55842 13.6159 2.97509 13.8242 2.48342 14.2159C2.29176 14.3659 2.04176 14.3909 1.8251 14.2909C1.60843 14.1909 1.4751 13.9659 1.4751 13.7242V10.0826C1.4751 8.00756 3.15843 6.32422 5.23343 6.32422H14.8001C16.8751 6.32422 18.5584 8.00756 18.5584 10.0826V11.2826C18.5584 11.6242 18.2751 11.9076 17.9334 11.9076H16.2501C15.9584 11.9076 15.6918 12.0159 15.5001 12.2159L15.4918 12.2242C15.2584 12.4492 15.1501 12.7576 15.1751 13.0743C15.2251 13.6242 15.7501 14.0659 16.3501 14.0659H17.9334C18.2751 14.0659 18.5584 14.3493 18.5584 14.6909V15.6825C18.5418 17.7742 16.8584 19.4576 14.7834 19.4576ZM7.65009 18.2076H14.7834C16.1668 18.2076 17.2918 17.0826 17.2918 15.6992V15.3326H16.3334C15.0751 15.3326 14.0084 14.3992 13.9084 13.1992C13.8418 12.5159 14.0918 11.8409 14.5918 11.3492C15.0251 10.9076 15.6084 10.6659 16.2334 10.6659H17.2918V10.0909C17.2918 8.70757 16.1668 7.58256 14.7834 7.58256H5.21676C3.83342 7.58256 2.70843 8.70757 2.70843 10.0909V12.6576C3.17509 12.4742 3.66676 12.3742 4.16676 12.3742C6.35009 12.3742 8.12509 14.1492 8.12509 16.3326C8.12509 16.9909 7.95842 17.6409 7.65009 18.2076Z" fill="#929EAE"/>
<path d="M2.0835 10.7176C1.74183 10.7176 1.4585 10.4343 1.4585 10.0926V7.03428C1.4585 5.79261 2.2335 4.65923 3.39184 4.2259L10.0085 1.7259C10.6918 1.4759 11.4585 1.56761 12.0502 1.98428C12.6418 2.40095 13.0002 3.07593 13.0002 3.7926V6.95926C13.0002 7.30092 12.7168 7.58426 12.3752 7.58426C12.0335 7.58426 11.7502 7.30092 11.7502 6.95926V3.7926C11.7502 3.47593 11.6002 3.1926 11.3418 3.00926C11.0752 2.82593 10.7502 2.78425 10.4502 2.89259L3.8335 5.39259C3.15017 5.65092 2.7085 6.29261 2.7085 7.03428V10.0926C2.7085 10.4343 2.42516 10.7176 2.0835 10.7176Z" fill="#929EAE"/>
<path d="M16.3331 15.3327C15.0747 15.3327 14.0081 14.3993 13.9081 13.1993C13.8414 12.5077 14.0914 11.8327 14.5914 11.341C15.0164 10.9077 15.5997 10.666 16.2247 10.666H17.9581C18.7831 10.691 19.4164 11.341 19.4164 12.141V13.8577C19.4164 14.6577 18.7831 15.3077 17.9831 15.3327H16.3331ZM17.9414 11.916H16.2331C15.9414 11.916 15.6747 12.0243 15.4831 12.2243C15.2414 12.4577 15.1247 12.7743 15.1581 13.091C15.2081 13.641 15.7331 14.0827 16.3331 14.0827H17.9664C18.0747 14.0827 18.1747 13.9827 18.1747 13.8577V12.141C18.1747 12.016 18.0747 11.9243 17.9414 11.916Z" fill="#929EAE"/>
<path d="M11.6668 11.125H5.8335C5.49183 11.125 5.2085 10.8417 5.2085 10.5C5.2085 10.1583 5.49183 9.875 5.8335 9.875H11.6668C12.0085 9.875 12.2918 10.1583 12.2918 10.5C12.2918 10.8417 12.0085 11.125 11.6668 11.125Z" fill="#929EAE"/>
<path d="M4.16683 20.2917C1.9835 20.2917 0.208496 18.5167 0.208496 16.3333C0.208496 15.1167 0.750162 13.9916 1.69183 13.2416C2.39183 12.6833 3.27516 12.375 4.16683 12.375C6.35016 12.375 8.12516 14.15 8.12516 16.3333C8.12516 17.4667 7.6335 18.55 6.7835 19.3C6.05016 19.9417 5.12516 20.2917 4.16683 20.2917ZM4.16683 13.625C3.55016 13.625 2.96683 13.8333 2.47516 14.225C1.8335 14.7333 1.4585 15.5083 1.4585 16.3333C1.4585 17.825 2.67516 19.0417 4.16683 19.0417C4.81683 19.0417 5.45016 18.8 5.95849 18.3667C6.54182 17.85 6.87516 17.1167 6.87516 16.3333C6.87516 14.8417 5.6585 13.625 4.16683 13.625Z" fill="#929EAE"/>
<path d="M3.33307 17.791C3.12474 17.791 2.91641 17.6827 2.79974 17.491C2.62474 17.191 2.7164 16.8077 3.0164 16.6327L3.75807 16.191V15.291C3.75807 14.9493 4.0414 14.666 4.38307 14.666C4.72474 14.666 5.00807 14.9493 5.00807 15.291V16.541C5.00807 16.7577 4.8914 16.966 4.70807 17.0744L3.6664 17.6994C3.55807 17.766 3.44141 17.791 3.33307 17.791Z" fill="#929EAE"/>
</svg>
