<svg width="29" height="25" viewBox="0 0 29 25" fill="none" xmlns="http://www.w3.org/2000/svg">
<path d="M15.668 8.89258C15.668 7.78591 14.7746 6.89258 13.668 6.89258C12.5613 6.89258 11.668 7.78591 11.668 8.89258C11.668 9.99924 12.5613 10.8926 13.668 10.8926" stroke="#929EAE" stroke-width="1.5" stroke-linecap="round" stroke-linejoin="round"/>
<path d="M24.361 19.0267L20.6543 16.4267V8.0134L24.361 5.4134C26.1743 4.14674 27.6676 4.92007 27.6676 7.14674V17.3067C27.6676 19.5334 26.1743 20.3067 24.361 19.0267Z" stroke="#929EAE" stroke-width="1.5" stroke-linecap="round" stroke-linejoin="round"/>
<path d="M1 6.61333C1 2.4 2.4 1 6.61333 1H15.04C19.2533 1 20.6533 2.4 20.6533 6.61333V17.84C20.6533 22.0533 19.2533 23.4533 15.04 23.4533H6.61333C2.4 23.4533 1 20.6533 1 17.84V12.3867" stroke="#929EAE" stroke-width="1.5" stroke-linecap="round" stroke-linejoin="round"/>
</svg>
