<svg width="32" height="32" viewBox="0 0 32 32" fill="none" xmlns="http://www.w3.org/2000/svg">
<path d="M2.66602 10.3868C2.66602 6.17344 4.06602 4.77344 8.27935 4.77344H16.706C20.9193 4.77344 22.3193 6.17344 22.3193 10.3868V21.6134C22.3193 25.8268 20.9193 27.2268 16.706 27.2268H8.27935C4.06602 27.2268 2.66602 24.4268 2.66602 21.6134V16.1601" stroke="#929EAE" stroke-width="1.5" stroke-linecap="round" stroke-linejoin="round"/>
<path d="M26.027 22.8002L22.3203 20.2002V11.7868L26.027 9.18684C27.8403 7.92018 29.3336 8.69351 29.3336 10.9202V21.0802C29.3336 23.3068 27.8403 24.0802 26.027 22.8002Z" stroke="#929EAE" stroke-width="1.5" stroke-linecap="round" stroke-linejoin="round"/>
<path d="M17.334 12.666C17.334 11.5593 16.4407 10.666 15.334 10.666C14.2273 10.666 13.334 11.5593 13.334 12.666C13.334 13.7727 14.2273 14.666 15.334 14.666" stroke="#929EAE" stroke-width="1.5" stroke-linecap="round" stroke-linejoin="round"/>
</svg>
