<svg width="43" height="43" viewBox="0 0 43 43" fill="none" xmlns="http://www.w3.org/2000/svg">
<circle cx="21.5" cy="21.5" r="21" fill="#EBE8E8"/>
<path d="M29.8335 20.641V22.3577C29.8335 22.816 29.4668 23.191 29.0001 23.2077H27.3668C26.4668 23.2077 25.6418 22.5493 25.5668 21.6493C25.5168 21.1243 25.7168 20.6327 26.0668 20.291C26.3751 19.9743 26.8001 19.791 27.2668 19.791H29.0001C29.4668 19.8077 29.8335 20.1827 29.8335 20.641Z" fill="#363A3F"/>
<path d="M28.5583 24.4577H27.3666C25.7833 24.4577 24.45 23.266 24.3166 21.7494C24.2416 20.8827 24.5583 20.016 25.1916 19.3993C25.725 18.8493 26.4666 18.541 27.2666 18.541H28.5583C28.8 18.541 29 18.341 28.975 18.0993C28.7916 16.0743 27.45 14.691 25.4583 14.4577C25.2583 14.4243 25.05 14.416 24.8333 14.416H17.3333C17.1 14.416 16.875 14.4327 16.6583 14.466C14.5333 14.7327 13.1666 16.316 13.1666 18.5827V24.416C13.1666 26.716 15.0333 28.5827 17.3333 28.5827H24.8333C27.1666 28.5827 28.775 27.1244 28.975 24.8994C29 24.6577 28.8 24.4577 28.5583 24.4577ZM22.3333 19.6243H17.3333C16.9916 19.6243 16.7083 19.341 16.7083 18.9993C16.7083 18.6577 16.9916 18.3743 17.3333 18.3743H22.3333C22.675 18.3743 22.9583 18.6577 22.9583 18.9993C22.9583 19.341 22.675 19.6243 22.3333 19.6243Z" fill="#363A3F"/>
</svg>
