<svg width="20" height="21" viewBox="0 0 20 21" fill="none" xmlns="http://www.w3.org/2000/svg">
<g clip-path="url(#clip0_1704_22368)">
<path d="M9.9915 2.16602C5.3915 2.16602 1.6665 5.89935 1.6665 10.4993C1.6665 15.0993 5.3915 18.8327 9.9915 18.8327C14.5998 18.8327 18.3332 15.0993 18.3332 10.4993C18.3332 5.89935 14.5998 2.16602 9.9915 2.16602ZM15.7665 7.16602H13.3082C13.0415 6.12435 12.6582 5.12435 12.1582 4.19935C13.6915 4.72435 14.9665 5.79102 15.7665 7.16602ZM9.99984 3.86602C10.6915 4.86602 11.2332 5.97435 11.5915 7.16602H8.40817C8.7665 5.97435 9.30817 4.86602 9.99984 3.86602ZM3.54984 12.166C3.4165 11.6327 3.33317 11.0743 3.33317 10.4993C3.33317 9.92435 3.4165 9.36602 3.54984 8.83268H6.3665C6.29984 9.38268 6.24984 9.93268 6.24984 10.4993C6.24984 11.066 6.29984 11.616 6.3665 12.166H3.54984ZM4.23317 13.8327H6.6915C6.95817 14.8743 7.3415 15.8743 7.8415 16.7993C6.30817 16.2743 5.03317 15.216 4.23317 13.8327ZM6.6915 7.16602H4.23317C5.03317 5.78268 6.30817 4.72435 7.8415 4.19935C7.3415 5.12435 6.95817 6.12435 6.6915 7.16602ZM9.99984 17.1327C9.30817 16.1327 8.7665 15.0243 8.40817 13.8327H11.5915C11.2332 15.0243 10.6915 16.1327 9.99984 17.1327ZM11.9498 12.166H8.04984C7.97484 11.616 7.9165 11.066 7.9165 10.4993C7.9165 9.93268 7.97484 9.37435 8.04984 8.83268H11.9498C12.0248 9.37435 12.0832 9.93268 12.0832 10.4993C12.0832 11.066 12.0248 11.616 11.9498 12.166ZM12.1582 16.7993C12.6582 15.8743 13.0415 14.8743 13.3082 13.8327H15.7665C14.9665 15.2077 13.6915 16.2743 12.1582 16.7993ZM13.6332 12.166C13.6998 11.616 13.7498 11.066 13.7498 10.4993C13.7498 9.93268 13.6998 9.38268 13.6332 8.83268H16.4498C16.5832 9.36602 16.6665 9.92435 16.6665 10.4993C16.6665 11.0743 16.5832 11.6327 16.4498 12.166H13.6332Z" fill="#929EAE"/>
</g>
<defs>
<clipPath id="clip0_1704_22368">
<rect width="20" height="20" fill="white" transform="translate(0 0.5)"/>
</clipPath>
</defs>
</svg>
