<svg xmlns="http://www.w3.org/2000/svg" width="24" height="24" viewBox="0 0 24 24" fill="none">
  <path d="M13.95 11.9922L10.8 10.1922V13.7922L13.95 11.9922Z" fill="#612897"/>
  <path fill-rule="evenodd" clip-rule="evenodd" d="M0 3.74219C0 1.67112 1.67893 -0.0078125 3.75 -0.0078125H20.25C22.3211 -0.0078125 24 1.67112 24 3.74219V20.2422C24 22.3133 22.3211 23.9922 20.25 23.9922H3.75C1.67893 23.9922 0 22.3133 0 20.2422V3.74219ZM16.65 8.01719C17.175 8.16719 17.55 8.54219 17.7 9.06719C18 10.0422 18 11.9922 18 11.9922C18 11.9922 18 13.9422 17.775 14.9172C17.625 15.4422 17.25 15.8172 16.725 15.9672C15.75 16.1922 12 16.1922 12 16.1922C12 16.1922 8.175 16.1922 7.275 15.9672C6.75 15.8172 6.375 15.4422 6.225 14.9172C6 13.9422 6 11.9922 6 11.9922C6 11.9922 6 10.0422 6.15 9.06719C6.3 8.54219 6.675 8.16719 7.2 8.01719C8.175 7.79219 11.925 7.79219 11.925 7.79219C11.925 7.79219 15.75 7.79219 16.65 8.01719Z" fill="#612897"/>
</svg>