<svg xmlns="http://www.w3.org/2000/svg" width="32" height="33" viewBox="0 0 32 33" fill="none">
  <path d="M18.6 16.0313L14.4 13.6313V18.4313L18.6 16.0313Z" fill="#D50404"/>
  <path fill-rule="evenodd" clip-rule="evenodd" d="M0 5.03125C0 2.26983 2.23858 0.03125 5 0.03125H27C29.7614 0.03125 32 2.26983 32 5.03125V27.0312C32 29.7927 29.7614 32.0312 27 32.0312H5C2.23858 32.0312 0 29.7927 0 27.0312V5.03125ZM22.2 10.7313C22.9 10.9313 23.4 11.4313 23.6 12.1313C24 13.4313 24 16.0313 24 16.0313C24 16.0313 24 18.6313 23.7 19.9313C23.5 20.6313 23 21.1313 22.3 21.3313C21 21.6313 16 21.6313 16 21.6313C16 21.6313 10.9 21.6313 9.7 21.3313C9 21.1313 8.5 20.6313 8.3 19.9313C8 18.6313 8 16.0313 8 16.0313C8 16.0313 8 13.4313 8.2 12.1313C8.4 11.4313 8.90001 10.9313 9.60001 10.7313C10.9 10.4313 15.9 10.4313 15.9 10.4313C15.9 10.4313 21 10.4313 22.2 10.7313Z" fill="#D50404"/>
</svg>