<svg xmlns="http://www.w3.org/2000/svg" width="55" height="57" viewBox="0 0 55 57" fill="none">
  <g filter="url(#filter0_d_121_1594)">
    <path d="M15.4164 28.4787C15.4164 35.0845 20.7714 40.4395 27.3771 40.4395H40.1247V26.3541C40.1247 19.5311 34.5936 13.9999 27.7706 13.9999C20.9475 13.9999 15.4164 19.5311 15.4164 26.3541V28.4787Z" fill="white"/>
  </g>
  <path d="M33.8173 24.1843C33.66 23.6337 33.2668 23.2404 32.7162 23.0831C31.7724 22.8472 27.7611 22.8472 27.7611 22.8472C27.7611 22.8472 23.8284 22.8472 22.8059 23.0831C22.2554 23.2404 21.8621 23.6337 21.7048 24.1843C21.5475 25.2068 21.5475 27.2517 21.5475 27.2517C21.5475 27.2517 21.5475 29.2967 21.7834 30.3192C21.9408 30.8698 22.334 31.263 22.8846 31.4203C23.8284 31.6563 27.8397 31.6563 27.8397 31.6563C27.8397 31.6563 31.7723 31.6563 32.7948 31.4203C33.3454 31.263 33.7387 30.8698 33.896 30.3192C34.1319 29.2967 34.1319 27.2517 34.1319 27.2517C34.1319 27.2517 34.1319 25.2068 33.8173 24.1843ZM26.5813 29.1394V25.3641L29.8847 27.2517L26.5813 29.1394Z" fill="#C93F3D"/>
  <defs>
    <filter id="filter0_d_121_1594" x="0.763159" y="0.62097" width="54.0148" height="55.7459" filterUnits="userSpaceOnUse" color-interpolation-filters="sRGB">
      <feFlood flood-opacity="0" result="BackgroundImageFix"/>
      <feColorMatrix in="SourceAlpha" type="matrix" values="0 0 0 0 0 0 0 0 0 0 0 0 0 0 0 0 0 0 127 0" result="hardAlpha"/>
      <feOffset dy="1.27419"/>
      <feGaussianBlur stdDeviation="7.32661"/>
      <feComposite in2="hardAlpha" operator="out"/>
      <feColorMatrix type="matrix" values="0 0 0 0 0.788235 0 0 0 0 0.247059 0 0 0 0 0.239216 0 0 0 0.1 0"/>
      <feBlend mode="normal" in2="BackgroundImageFix" result="effect1_dropShadow_121_1594"/>
      <feBlend mode="normal" in="SourceGraphic" in2="effect1_dropShadow_121_1594" result="shape"/>
    </filter>
  </defs>
</svg>