<svg xmlns="http://www.w3.org/2000/svg" width="17" height="12" viewBox="0 0 17 12" fill="none">
  <path d="M15.8263 2.10039C15.6263 1.40039 15.1263 0.900391 14.4263 0.700391C13.2263 0.400391 8.12631 0.400391 8.12631 0.400391C8.12631 0.400391 3.12632 0.400391 1.82632 0.700391C1.12632 0.900391 0.626315 1.40039 0.426315 2.10039C0.226315 3.40039 0.226318 6.00039 0.226318 6.00039C0.226318 6.00039 0.226321 8.60039 0.526321 9.90039C0.726321 10.6004 1.22632 11.1004 1.92632 11.3004C3.12632 11.6004 8.22632 11.6004 8.22632 11.6004C8.22632 11.6004 13.2263 11.6004 14.5263 11.3004C15.2263 11.1004 15.7263 10.6004 15.9263 9.90039C16.2263 8.60039 16.2263 6.00039 16.2263 6.00039C16.2263 6.00039 16.2263 3.40039 15.8263 2.10039ZM6.62631 8.40039V3.60039L10.8263 6.00039L6.62631 8.40039Z" fill="#929EAE"/>
</svg>